<?xml version="1.0" standalone="no"?><!-- Generator: Gravit.io --><svg xmlns="http://www.w3.org/2000/svg" xmlns:xlink="http://www.w3.org/1999/xlink" style="isolation:isolate" viewBox="0 0 32 32" width="32" height="32"><defs><clipPath id="_clipPath_yN13AWPmmTSIpwy570hz2Cb1FtC28rdQ"><rect width="32" height="32"/></clipPath></defs><g clip-path="url(#_clipPath_yN13AWPmmTSIpwy570hz2Cb1FtC28rdQ)"><g><path d=" M 1.038 1.615 C 0.735 1.611 0.446 1.741 0.249 1.97 C 0.051 2.2 -0.035 2.505 0.013 2.804 L 4.364 29.217 C 4.476 29.884 5.051 30.375 5.727 30.38 L 26.601 30.38 C 27.108 30.387 27.544 30.02 27.626 29.519 L 31.987 2.814 C 32.035 2.515 31.949 2.21 31.751 1.981 C 31.554 1.751 31.265 1.621 30.962 1.625 L 1.038 1.615 Z  M 19.359 20.705 L 12.697 20.705 L 10.893 11.285 L 20.974 11.285 L 19.359 20.705 Z " fill="rgb(0,0,0)"/><linearGradient id="_lgradient_0" x1="1.086333797493535" y1="0.13791190858908298" x2="0.46926596379550434" y2="0.619710197827197" gradientTransform="matrix(25.762,0,0,19.1,4.831,11.285)" gradientUnits="userSpaceOnUse"><stop offset="18.26086956521739%" stop-opacity="0.25" style="stop-color:rgb(134,134,134)"/><stop offset="98.26086956521739%" stop-opacity="100" style="stop-color:rgb(0,0,0)"/></linearGradient><path d=" M 30.593 11.285 L 20.974 11.285 L 19.359 20.705 L 12.697 20.705 L 4.831 30.047 C 5.08 30.263 5.398 30.383 5.727 30.385 L 26.606 30.385 C 27.114 30.392 27.549 30.026 27.631 29.524 L 30.593 11.285 Z " fill="url(#_lgradient_0)"/></g></g></svg>