<?xml version="1.0" standalone="no"?><!-- Generator: Gravit.io --><svg xmlns="http://www.w3.org/2000/svg" xmlns:xlink="http://www.w3.org/1999/xlink" style="isolation:isolate" viewBox="0 0 32 32" width="32" height="32"><defs><clipPath id="_clipPath_2295ZQKyAkBhdGFbrAtKx4THTersJ2NX"><rect width="32" height="32"/></clipPath></defs><g clip-path="url(#_clipPath_2295ZQKyAkBhdGFbrAtKx4THTersJ2NX)"><path d=" M 13.275 31.82 C 9.847 31.193 7.271 29.826 4.695 27.228 C 2.568 25.1 1.627 23.622 0.776 21.113 C -0.703 16.655 -0.031 11.145 2.478 7.382 C 3.911 5.209 6.599 2.768 8.683 1.737 C 11.415 0.393 13.588 -0.077 16.679 0.08 C 19.524 0.214 20.89 0.55 23.399 1.76 C 25.527 2.79 28.977 6.128 30.052 8.188 C 32.561 12.982 32.65 18.335 30.298 23.375 C 30.007 23.958 29.716 24.428 29.626 24.428 C 29.514 24.428 29.447 24.518 29.447 24.652 C 29.447 24.966 28.663 25.907 26.871 27.676 C 24.161 30.386 20.801 31.775 16.679 31.932 C 15.38 31.977 13.857 31.932 13.275 31.82 Z  M 13.543 26.691 C 13.655 26.444 13.767 25.638 13.767 24.876 C 13.767 23.375 13.499 23.062 12.513 23.487 C 12.02 23.734 11.975 23.891 11.975 25.167 C 11.975 25.974 12.087 26.691 12.244 26.847 C 12.647 27.251 13.275 27.161 13.543 26.691 Z  M 16.634 26.847 C 17.038 26.444 16.948 25.817 16.478 25.548 C 15.761 25.19 15.358 25.279 15.201 25.884 C 14.954 26.847 15.962 27.519 16.634 26.847 Z  M 19.815 26.691 C 19.927 26.444 20.039 25.683 20.039 24.988 C 20.039 23.868 19.994 23.711 19.457 23.487 C 18.942 23.241 18.807 23.263 18.449 23.734 C 17.978 24.294 17.889 25.615 18.247 26.534 C 18.516 27.251 19.457 27.34 19.815 26.691 Z  M 16.634 24.607 C 17.038 24.204 16.97 22.502 16.545 22.099 C 16.142 21.673 16.097 21.673 15.537 21.964 C 15.201 22.143 15.111 22.435 15.111 23.263 C 15.111 24.383 15.38 24.876 16.007 24.876 C 16.209 24.876 16.478 24.764 16.634 24.607 Z  M 13.431 21.516 C 15.201 20.575 16.814 20.575 18.606 21.516 C 19.322 21.897 19.994 22.166 20.151 22.121 C 20.286 22.054 20.689 21.471 21.047 20.822 C 21.921 19.231 21.988 17.014 21.204 15.513 C 20.846 14.841 20.734 14.348 20.823 13.833 C 21.025 12.803 20.599 10.496 19.972 9.107 C 19.322 7.718 18.046 6.217 16.836 5.456 L 15.985 4.918 L 15.246 5.388 C 12.715 6.934 10.766 10.921 11.147 13.766 C 11.236 14.371 11.124 14.886 10.811 15.513 C 9.892 17.26 10.071 19.545 11.236 21.315 C 11.55 21.785 11.886 22.188 11.975 22.188 C 12.087 22.188 12.737 21.897 13.431 21.516 Z " fill="rgb(0,0,0)"/><path d=" M 11.886 19.836 C 11.483 19.03 11.393 16.812 11.751 16.812 C 11.886 16.812 11.975 16.902 11.975 17.014 C 11.975 17.126 12.379 17.753 12.871 18.403 C 13.364 19.075 13.767 19.657 13.767 19.724 C 13.767 19.814 13.431 20.038 13.006 20.239 L 12.244 20.598 L 11.886 19.836 Z " fill="rgb(0,0,0)"/><path d=" M 18.874 20.217 C 18.113 19.747 18.113 19.702 18.785 18.895 C 19.076 18.559 19.479 17.932 19.681 17.529 C 19.882 17.126 20.151 16.857 20.263 16.924 C 20.622 17.148 20.51 18.963 20.106 19.836 C 19.681 20.71 19.703 20.71 18.874 20.217 Z " fill="rgb(0,0,0)"/><path d=" M 14.619 18.604 C 12.379 16.23 11.841 12.758 13.207 9.667 C 13.79 8.39 15.447 6.508 16.007 6.508 C 16.522 6.508 18.068 8.211 18.695 9.51 C 20.017 12.176 19.793 15.155 18.113 17.641 C 17.284 18.851 16.5 19.5 15.873 19.5 C 15.671 19.5 15.111 19.097 14.619 18.604 Z  M 17.374 12.803 C 17.911 12.243 18.023 11.952 18.023 11.011 C 18.023 9.465 17.329 8.636 16.03 8.636 C 14.731 8.636 14.171 9.264 14.036 10.854 C 13.947 11.996 13.991 12.131 14.619 12.78 C 15.537 13.676 16.478 13.699 17.374 12.803 Z " fill="rgb(0,0,0)"/><path d=" M 15.425 11.795 C 15.358 11.616 15.335 11.145 15.38 10.72 C 15.425 10.16 15.559 9.958 15.94 9.913 C 16.567 9.824 16.97 10.563 16.791 11.459 C 16.679 11.952 16.522 12.108 16.097 12.108 C 15.783 12.108 15.492 11.974 15.425 11.795 Z " fill="rgb(0,0,0)"/></g></svg>