<?xml version="1.0" standalone="no"?><!-- Generator: Gravit.io --><svg xmlns="http://www.w3.org/2000/svg" xmlns:xlink="http://www.w3.org/1999/xlink" style="isolation:isolate" viewBox="0 0 32 32" width="32" height="32"><defs><clipPath id="_clipPath_xqrFqFZiXi3U2k9TGv9Xbr0cgoZVuqfv"><rect width="32" height="32"/></clipPath></defs><g clip-path="url(#_clipPath_xqrFqFZiXi3U2k9TGv9Xbr0cgoZVuqfv)"><g><path d=" M 20.778 13.353 L 19.595 12.951 C 19.532 13.113 18.929 14.62 18.135 14.88 L 17.388 13.893 C 17.029 14.174 16.211 14.421 15.816 14.305 L 15.816 14.269 L 15.795 14.269 L 15.817 16.989 C 14.252 17.152 12.375 16.201 11.475 14.893 L 10.493 15.637 C 9.377 14.29 9.207 12.665 9.196 11.732 L 10.519 11.732 C 10.519 10.697 10.924 9.349 11.493 8.603 L 12.524 9.333 C 12.607 9.229 13.387 8.298 14.429 7.961 L 14.444 7.961 L 13.702 5.988 C 15.276 5.535 16.431 5.542 17.689 6.009 C 17.726 6.022 17.761 6.04 17.793 6.063 L 17.813 6.078 L 17.597 6.665 C 17.656 6.691 18.491 7.065 18.837 7.418 L 19.114 7.034 C 19.114 7.034 20.742 7.911 21.239 9.864 L 20.806 10.015 L 20.806 10.005 C 21.105 11.102 21.095 12.261 20.778 13.353 L 20.778 13.353 L 20.778 13.353 L 20.778 13.353 Z  M 22.428 13.606 C 22.722 12.392 22.685 11.251 22.023 9.655 C 22.023 9.655 23.09 10.073 22.98 9.249 C 22.869 8.425 21.692 7.562 20.81 7.012 C 20.422 6.77 19.37 6.254 17.959 5.94 L 18.222 5.345 L 18.149 5.31 C 15.959 4.245 13.431 5.206 13.405 5.22 L 13.327 5.251 L 13.577 5.912 C 12.837 6.082 12.122 6.348 11.451 6.703 C 5.511 9.868 8.528 16.045 10.364 17.517 C 12.2 18.989 11.357 21.986 10.364 24.699 L 18.348 24.699 C 18.459 24.19 18.363 24.95 18.734 22.926 C 19.106 20.903 20.541 21.653 21.672 21.584 C 22.802 21.515 22.623 20.728 22.61 19.846 C 23.162 19.598 23.162 19.336 22.794 19.019 C 23.273 18.578 23.199 18.578 22.941 18.145 C 22.683 17.712 22.867 17.511 22.867 17.511 C 22.867 17.511 23.639 17.36 23.749 16.957 C 23.788 16.065 22.134 14.821 22.428 13.606 L 22.428 13.606 L 22.428 13.606 L 22.428 13.606 Z  M 30.339 4.926 L 16.184 0.056 C 15.967 -0.019 15.731 -0.019 15.513 0.056 L 1.66 4.928 C 1.212 5.084 0.931 5.529 0.983 6.002 L 2.933 24.456 C 2.968 24.788 3.163 25.083 3.455 25.245 L 15.507 31.873 C 15.817 32.044 16.194 32.042 16.502 31.868 L 28.255 25.239 C 28.538 25.078 28.727 24.794 28.767 24.472 L 31.016 6.017 C 31.073 5.54 30.792 5.087 30.339 4.926 L 30.339 4.926 Z  M 15.748 9.758 C 15.216 9.758 14.737 10.078 14.534 10.569 C 14.33 11.06 14.443 11.625 14.819 12.001 C 15.195 12.377 15.76 12.489 16.251 12.286 C 16.742 12.083 17.062 11.603 17.062 11.072 C 17.062 10.346 16.474 9.758 15.748 9.758 L 15.748 9.758 Z " fill-rule="evenodd" fill="rgb(0,0,0)"/></g></g></svg>