<?xml version="1.0" standalone="no"?><!-- Generator: Gravit.io --><svg xmlns="http://www.w3.org/2000/svg" xmlns:xlink="http://www.w3.org/1999/xlink" style="isolation:isolate" viewBox="0 0 32 32" width="32" height="32"><defs><clipPath id="_clipPath_950XDWRGtI2evCMaMn9Otea5Gt6FwUhc"><rect width="32" height="32"/></clipPath></defs><g clip-path="url(#_clipPath_950XDWRGtI2evCMaMn9Otea5Gt6FwUhc)"><g><path d=" M 13.104 13.424 C 12.192 13.424 11.472 14.224 11.472 15.2 C 11.472 16.176 12.208 16.976 13.104 16.976 C 14.016 16.976 14.736 16.176 14.736 15.2 C 14.752 14.224 14.016 13.424 13.104 13.424 Z  M 18.944 13.424 C 18.032 13.424 17.312 14.224 17.312 15.2 C 17.312 16.176 18.048 16.976 18.944 16.976 C 19.856 16.976 20.576 16.176 20.576 15.2 C 20.576 14.224 19.856 13.424 18.944 13.424 Z " fill="rgb(0,0,0)"/><path d=" M 26.72 0 L 5.28 0 C 3.472 0 2 1.472 2 3.296 L 2 24.928 C 2 26.752 3.472 28.224 5.28 28.224 L 23.424 28.224 L 22.576 25.264 L 24.624 27.168 L 26.56 28.96 L 30 32 L 30 3.296 C 30 1.472 28.528 0 26.72 0 Z  M 20.544 20.896 C 20.544 20.896 19.968 20.208 19.488 19.6 C 21.584 19.008 22.384 17.696 22.384 17.696 C 21.728 18.128 21.104 18.432 20.544 18.64 C 19.744 18.976 18.976 19.2 18.224 19.328 C 16.688 19.616 15.28 19.536 14.08 19.312 C 13.168 19.136 12.384 18.88 11.728 18.624 C 11.36 18.48 10.96 18.304 10.56 18.08 C 10.512 18.048 10.464 18.032 10.416 18 C 10.384 17.984 10.368 17.968 10.352 17.952 C 10.064 17.792 9.904 17.68 9.904 17.68 C 9.904 17.68 10.672 18.96 12.704 19.568 C 12.224 20.176 11.632 20.896 11.632 20.896 C 8.096 20.784 6.752 18.464 6.752 18.464 C 6.752 13.312 9.056 9.136 9.056 9.136 C 11.36 7.408 13.552 7.456 13.552 7.456 L 13.712 7.648 C 10.832 8.48 9.504 9.744 9.504 9.744 C 9.504 9.744 9.856 9.552 10.448 9.28 C 12.16 8.528 13.52 8.32 14.08 8.272 C 14.176 8.256 14.256 8.24 14.352 8.24 C 15.328 8.112 16.432 8.08 17.584 8.208 C 19.104 8.384 20.736 8.832 22.4 9.744 C 22.4 9.744 21.136 8.544 18.416 7.712 L 18.64 7.456 C 18.64 7.456 20.832 7.408 23.136 9.136 C 23.136 9.136 25.44 13.312 25.44 18.464 C 25.44 18.464 24.08 20.784 20.544 20.896 L 20.544 20.896 Z " fill="rgb(0,0,0)"/></g></g></svg>