<?xml version="1.0" encoding="UTF-8" standalone="no"?>
<!-- Generator: Gravit.io -->
<svg xmlns="http://www.w3.org/2000/svg" xmlns:xlink="http://www.w3.org/1999/xlink" style="isolation:isolate" viewBox="0 0 32 32" width="32" height="32"><defs><clipPath id="_clipPath_q1sXOg3JF8hjmlyq3bW1MI4PD1LnyobI"><rect width="32" height="32"/></clipPath></defs><g clip-path="url(#_clipPath_q1sXOg3JF8hjmlyq3bW1MI4PD1LnyobI)"><path d=" M 29.832 8 C 28.927 6.441 17.809 0 15.999 0 C 14.189 0 3.067 6.425 2.166 8 C 1.266 9.576 1.261 22.425 2.166 24 C 3.072 25.576 14.19 32 15.999 32 C 17.808 32 28.927 25.568 29.832 24 C 30.737 22.433 30.738 9.559 29.832 8 Z  M 19.747 25.889 C 19.499 25.889 17.19 23.653 17.372 23.47 C 17.426 23.416 17.764 23.378 18.469 23.356 L 18.469 23.295 C 18.469 21.887 18.501 19.276 18.527 17.961 C 18.53 17.834 18.5 17.747 18.5 17.595 C 16.821 17.595 15.182 17.595 13.504 17.595 C 13.504 18.2 13.493 18.851 13.506 19.492 C 13.523 20.338 13.547 21.305 13.59 22.15 C 13.604 22.434 13.491 22.523 13.231 22.522 C 12.597 22.52 11.963 22.515 11.33 22.516 C 11.074 22.517 10.963 22.421 10.971 22.135 C 11.019 20.395 11.07 18.513 11.068 16.773 C 11.066 14.691 11.012 10.924 10.961 8.843 L 10.961 8.645 C 10.357 8.623 9.937 8.585 9.883 8.53 C 9.7 8.347 12.041 6.112 12.288 6.112 C 12.535 6.112 14.862 8.348 14.68 8.53 C 14.625 8.584 14.186 8.622 13.632 8.644 L 13.632 8.842 C 13.481 10.451 13.505 13.816 13.468 15.429 C 15.167 15.429 16.806 15.429 18.484 15.429 C 18.484 14.774 18.492 14.169 18.482 13.563 C 18.465 12.493 18.443 11.271 18.409 10.201 C 18.402 9.989 18.468 9.878 18.672 9.876 C 19.364 9.871 20.056 9.868 20.749 9.873 C 20.965 9.874 21.034 9.98 21.03 10.209 C 20.984 12.608 20.915 15.147 20.907 17.546 C 20.903 18.99 20.938 21.738 20.988 23.268 L 20.988 23.355 C 21.542 23.377 22.039 23.415 22.094 23.47 C 22.276 23.653 19.994 25.889 19.747 25.889 Z " fill="rgb(0,0,0)"/></g></svg>