<?xml version="1.0" encoding="UTF-8" standalone="no"?>
<!-- Generator: Gravit.io -->
<svg xmlns="http://www.w3.org/2000/svg" xmlns:xlink="http://www.w3.org/1999/xlink" style="isolation:isolate" viewBox="0 0 32 32" width="32" height="32"><defs><clipPath id="_clipPath_k0tMXFPLchlGOYjkbvfSRPp5EX8Q0oU7"><rect width="32" height="32"/></clipPath></defs><g clip-path="url(#_clipPath_k0tMXFPLchlGOYjkbvfSRPp5EX8Q0oU7)"><path d=" M 15.884 11.775 C 17.578 11.775 18.377 12.837 18.377 15.048 L 18.377 24.146 C 18.377 26.357 17.61 27.448 15.884 27.448 C 14.158 27.448 13.359 26.357 13.359 24.146 L 13.359 15.048 C 13.359 12.837 14.158 11.775 15.884 11.775 L 15.884 11.775 Z  M 0 0 L 32 0 L 32 32 L 0 32 L 0 0 L 0 0 Z  M 15.884 10.041 C 14.254 10.041 12.975 8.893 12.975 7.429 C 12.975 5.994 14.286 4.817 15.884 4.817 C 17.482 4.817 18.76 5.994 18.76 7.429 C 18.76 8.893 17.482 10.041 15.884 10.041 Z " fill-rule="evenodd" fill="rgb(0,0,0)"/></g></svg>