<?xml version="1.0" standalone="no"?><!-- Generator: Gravit.io --><svg xmlns="http://www.w3.org/2000/svg" xmlns:xlink="http://www.w3.org/1999/xlink" style="isolation:isolate" viewBox="0 0 32 32" width="32" height="32"><defs><clipPath id="_clipPath_BmUxGrovTcFUQQzCL0aQ7TobvRZDSeRl"><rect width="32" height="32"/></clipPath></defs><g clip-path="url(#_clipPath_BmUxGrovTcFUQQzCL0aQ7TobvRZDSeRl)"><path d=" M 0 16 L 0 0 L 16 0 L 32 0 L 32 16 L 32 32 L 16 32 L 0 32 L 0 16 Z  M 12.408 27.92 C 12.552 27.84 12.56 27.72 12.56 25.16 L 12.56 22.488 L 13.248 21.824 C 13.624 21.456 13.984 21.16 14.04 21.16 C 14.104 21.16 15.04 22.296 16.128 23.68 C 19.232 27.632 19.36 27.792 19.544 27.896 C 19.664 27.968 20.24 27.992 21.408 28 C 23.72 28 23.68 28.072 22.272 26.32 C 17.704 20.672 16.392 19.024 16.352 18.936 C 16.328 18.872 17.624 17.56 19.64 15.608 C 21.464 13.84 22.96 12.344 22.96 12.28 C 22.96 12.224 22.904 12.112 22.832 12.048 C 22.728 11.936 22.456 11.92 21.088 11.92 C 20.152 11.92 19.36 11.952 19.224 12.008 C 19.064 12.056 17.84 13.248 15.84 15.288 C 14.12 17.04 12.672 18.456 12.632 18.432 C 12.592 18.408 12.56 15.368 12.56 11.12 C 12.56 4.008 12.56 3.84 12.408 3.76 C 12.32 3.712 11.712 3.68 11 3.68 C 10.288 3.68 9.68 3.712 9.592 3.76 C 9.44 3.848 9.44 4.064 9.44 15.84 C 9.44 27.176 9.448 27.84 9.584 27.912 C 9.768 28.024 12.2 28.024 12.408 27.92 Z " fill="rgb(0,0,0)"/></g></svg>