<?xml version="1.0" standalone="no"?><!-- Generator: Gravit.io --><svg xmlns="http://www.w3.org/2000/svg" xmlns:xlink="http://www.w3.org/1999/xlink" style="isolation:isolate" viewBox="0 0 32 32" width="32" height="32"><defs><clipPath id="_clipPath_evUeteUoMQW5z7LrA6pUwDBXpUXVIClT"><rect width="32" height="32"/></clipPath></defs><g clip-path="url(#_clipPath_evUeteUoMQW5z7LrA6pUwDBXpUXVIClT)"><path d=" M 14.434 31.97 C 13.2 31.828 12.004 31.349 10.882 30.549 C 10.105 29.996 4.43 24.329 3.914 23.588 C 2.89 22.131 2.434 20.71 2.434 18.975 C 2.434 17.331 2.83 16.022 3.765 14.579 C 4.243 13.839 17.641 0.404 18.134 0.164 C 18.404 0.037 18.613 0.007 19.144 0 C 19.734 0 19.869 0.03 20.243 0.217 C 20.946 0.561 21.342 1.234 21.349 2.056 C 21.349 2.893 21.177 3.155 19.503 4.837 L 18.037 6.303 L 18.785 6.684 C 19.899 7.237 20.527 7.761 22.591 9.847 C 24.295 11.559 24.482 11.776 24.632 12.172 C 24.833 12.718 24.833 13.106 24.632 13.652 C 24.19 14.863 22.733 15.506 21.678 14.946 C 21.439 14.819 20.684 14.131 19.443 12.897 C 17.544 11.02 17.349 10.863 16.49 10.564 C 15.959 10.385 15.009 10.37 14.419 10.542 C 13.604 10.781 13.275 11.058 10.351 13.996 C 8.138 16.217 7.488 16.912 7.331 17.226 C 6.718 18.452 6.748 19.746 7.421 20.889 C 7.697 21.368 12.901 26.594 13.462 26.96 C 14 27.312 14.478 27.469 15.196 27.529 C 15.884 27.581 16.729 27.394 17.252 27.058 C 17.469 26.93 18.448 26.011 19.435 25.024 C 21.469 22.998 21.693 22.841 22.493 22.841 C 23.398 22.841 24.086 23.252 24.527 24.045 C 24.721 24.388 24.751 24.531 24.751 25.009 C 24.751 25.921 24.669 26.033 22.404 28.306 C 20.826 29.891 20.28 30.392 19.749 30.729 C 19.054 31.185 18.194 31.573 17.574 31.73 C 17.372 31.783 17.08 31.85 16.938 31.887 C 16.549 31.985 15.032 32.037 14.434 31.97 Z  M 19.353 0.135 C 19.256 0.12 19.091 0.12 18.979 0.135 C 18.86 0.15 18.942 0.164 19.144 0.164 C 19.353 0.164 19.443 0.15 19.353 0.135 Z " fill="rgb(7,7,6)"/><path d=" M 13.574 21.039 C 13.14 20.845 12.639 20.359 12.407 19.91 C 12.176 19.454 12.161 18.624 12.37 18.161 C 12.557 17.749 12.998 17.271 13.417 17.024 L 13.761 16.822 L 20.901 16.822 L 28.041 16.822 L 28.392 17.024 C 28.781 17.256 29.2 17.712 29.394 18.123 C 29.603 18.542 29.626 19.379 29.439 19.798 C 29.23 20.261 28.744 20.777 28.28 21.009 L 27.899 21.196 L 20.908 21.196 C 14.037 21.196 13.903 21.189 13.574 21.039 Z " fill="rgb(7,7,6)"/></g></svg>