<?xml version="1.0" encoding="UTF-8" standalone="no"?>
<!-- Generator: Gravit.io -->
<svg xmlns="http://www.w3.org/2000/svg" xmlns:xlink="http://www.w3.org/1999/xlink" style="isolation:isolate" viewBox="0 0 32 32" width="32" height="32"><defs><clipPath id="_clipPath_JRF41baPznyrXr9dMuQydd26br3Z6CeA"><rect width="32" height="32"/></clipPath></defs><g clip-path="url(#_clipPath_JRF41baPznyrXr9dMuQydd26br3Z6CeA)"><path d=" M 9.657 28.179 L 9.657 11.965 L 4.65 11.965 L 4.65 28.178 L 9.657 28.179 L 9.657 28.179 L 9.657 28.179 L 9.657 28.179 Z  M 7.154 9.751 C 8.899 9.751 9.987 8.506 9.987 6.95 C 9.955 5.359 8.899 4.149 7.187 4.149 C 5.474 4.149 4.354 5.359 4.354 6.95 C 4.354 8.506 5.44 9.751 7.121 9.751 L 7.154 9.751 L 7.154 9.751 L 7.154 9.751 L 7.154 9.751 Z  M 0 27.594 C 0 30.263 2.145 32.427 4.791 32.427 L 26.939 32.427 C 29.585 32.427 31.73 30.263 32 27.685 L 32 5.35 C 31.73 2.59 29.585 0.427 26.939 0.427 L 4.791 0.427 C 2.145 0.427 0 2.59 0 5.259 L 0 5.259 L 0 27.594 L 0 27.594 Z  M 12.428 28.179 L 17.436 28.179 L 17.436 19.125 C 17.436 18.64 17.469 18.155 17.601 17.809 C 17.962 16.84 18.787 15.838 20.17 15.838 C 21.982 15.838 22.706 17.325 22.706 19.505 L 22.706 28.178 L 27.714 28.178 L 27.714 18.882 C 27.714 13.902 25.244 11.584 21.949 11.584 C 19.247 11.584 18.061 13.208 17.402 14.315 L 17.436 14.315 L 17.436 11.965 L 12.428 11.965 C 12.495 13.486 12.428 28.179 12.428 28.179 L 12.428 28.179 Z " fill-rule="evenodd" fill="rgb(0,0,0)"/></g></svg>