<?xml version="1.0" encoding="UTF-8" standalone="no"?>
<!-- Generator: Gravit.io -->
<svg xmlns="http://www.w3.org/2000/svg" xmlns:xlink="http://www.w3.org/1999/xlink" style="isolation:isolate" viewBox="0 0 32 32" width="32" height="32"><defs><clipPath id="_clipPath_GV4p6O0Fb5poLuTRoGzJdVNmLEAMnhhC"><rect width="32" height="32"/></clipPath></defs><g clip-path="url(#_clipPath_GV4p6O0Fb5poLuTRoGzJdVNmLEAMnhhC)"><g><path d=" M 15.801 0 C 7.037 0 0 7.037 0 15.801 C 0 22.307 3.851 27.751 9.427 30.274 C 9.427 29.212 9.427 27.884 9.693 26.689 C 9.959 25.361 11.685 18.058 11.685 18.058 C 11.685 18.058 11.154 16.996 11.154 15.535 C 11.154 13.145 12.481 11.419 14.207 11.419 C 15.668 11.419 16.332 12.481 16.332 13.809 C 16.332 15.27 15.402 17.394 15.004 19.386 C 14.606 21.112 15.934 22.44 17.527 22.44 C 20.581 22.44 22.573 18.589 22.573 14.075 C 22.573 10.622 20.183 8.1 16.066 8.1 C 11.286 8.1 8.365 11.685 8.365 15.668 C 8.365 16.996 8.763 18.058 9.427 18.722 C 9.693 19.12 9.826 19.253 9.693 19.651 C 9.56 19.917 9.427 20.581 9.427 20.979 C 9.295 21.378 9.029 21.51 8.631 21.378 C 6.373 20.448 5.444 18.058 5.444 15.402 C 5.444 10.888 9.162 5.577 16.73 5.577 C 22.705 5.577 26.689 9.959 26.689 14.606 C 26.689 20.846 23.237 25.361 18.191 25.361 C 16.465 25.361 14.871 24.432 14.34 23.369 C 14.34 23.369 13.411 26.954 13.278 27.751 C 12.88 28.946 12.349 30.141 11.685 31.071 C 13.145 31.469 14.606 31.734 16.199 31.734 C 24.963 31.734 32 24.697 32 15.934 C 31.602 7.037 24.564 0 15.801 0 Z " fill="rgb(0,0,0)"/></g></g></svg>