<?xml version="1.0" standalone="no"?><!-- Generator: Gravit.io --><svg xmlns="http://www.w3.org/2000/svg" xmlns:xlink="http://www.w3.org/1999/xlink" style="isolation:isolate" viewBox="0 0 32 32" width="32" height="32"><defs><clipPath id="_clipPath_LK7m97l88DFouN9QsSJo2ZmaGScT5A9Q"><rect width="32" height="32"/></clipPath></defs><g clip-path="url(#_clipPath_LK7m97l88DFouN9QsSJo2ZmaGScT5A9Q)"><g><path d=" M 0 16 C 0 7.169 7.169 0 16 0 C 24.831 0 32 7.169 32 16 C 32 24.831 24.831 32 16 32 C 7.169 32 0 24.831 0 16 Z  M 19.911 19.556 C 18.931 19.556 18.133 18.759 18.133 17.778 C 18.133 16.797 18.931 16 19.911 16 C 20.892 16 21.69 16.797 21.69 17.778 C 21.69 18.759 20.892 19.556 19.911 19.556 L 19.911 19.556 Z  M 20.224 22.476 C 19.011 23.687 16.686 23.781 16.002 23.781 C 15.318 23.781 12.993 23.687 11.781 22.475 C 11.601 22.294 11.601 22.003 11.781 21.823 C 11.962 21.643 12.254 21.643 12.433 21.823 C 13.198 22.588 14.834 22.859 16.002 22.859 C 17.17 22.859 18.806 22.588 19.573 21.823 C 19.754 21.643 20.045 21.644 20.225 21.824 C 20.405 22.004 20.404 22.295 20.224 22.476 L 20.224 22.476 Z  M 10.311 17.778 C 10.311 16.798 11.109 16 12.09 16 C 13.07 16 13.867 16.797 13.867 17.778 C 13.867 18.758 13.07 19.555 12.09 19.555 C 11.109 19.555 10.311 18.758 10.311 17.778 L 10.311 17.778 Z  M 27.375 16 C 27.375 14.625 26.26 13.511 24.886 13.511 C 24.215 13.511 23.607 13.778 23.161 14.21 C 21.459 12.982 19.115 12.189 16.505 12.098 L 17.638 6.764 L 21.343 7.551 C 21.388 8.493 22.159 9.245 23.113 9.245 C 24.095 9.245 24.891 8.448 24.891 7.467 C 24.891 6.485 24.095 5.689 23.113 5.689 C 22.414 5.689 21.817 6.095 21.525 6.681 L 17.389 5.802 C 17.275 5.776 17.153 5.798 17.055 5.863 C 16.957 5.929 16.887 6.029 16.862 6.144 L 15.618 11.997 C 15.611 12.03 15.617 12.062 15.617 12.095 C 12.96 12.164 10.571 12.96 8.843 14.204 C 8.396 13.775 7.79 13.51 7.122 13.51 C 5.747 13.51 4.634 14.625 4.634 15.999 C 4.634 17.01 5.237 17.878 6.105 18.268 C 6.066 18.515 6.045 18.766 6.045 19.021 C 6.045 22.849 10.502 25.954 16 25.954 C 21.498 25.954 25.955 22.849 25.955 19.021 C 25.955 18.768 25.935 18.518 25.897 18.273 C 26.768 17.886 27.377 17.013 27.377 15.999 L 27.375 16 L 27.375 16 Z " fill-rule="evenodd" fill="rgb(0,0,0)"/></g></g></svg>