<?xml version="1.0" standalone="no"?><!-- Generator: Gravit.io --><svg xmlns="http://www.w3.org/2000/svg" xmlns:xlink="http://www.w3.org/1999/xlink" style="isolation:isolate" viewBox="0 0 32 32" width="32" height="32"><defs><clipPath id="_clipPath_d6fqyowKjjAUdObzzZweXvem05IvlMLG"><rect width="32" height="32"/></clipPath></defs><g clip-path="url(#_clipPath_d6fqyowKjjAUdObzzZweXvem05IvlMLG)"><clipPath id="_clipPath_M5MrfUaNYD9dpS5iIjfdqMp0GCvPQood"><rect x="0" y="0" width="32" height="32" transform="matrix(1,0,0,1,0,0)" fill="rgb(255,255,255)"/></clipPath><g clip-path="url(#_clipPath_M5MrfUaNYD9dpS5iIjfdqMp0GCvPQood)"><g><g><g><g><rect x="13.751" y="13.84" width="4.502" height="4.349" transform="matrix(0.948,-0.318,0.318,0.948,-4.262,5.92)" fill="rgb(45,51,58)"/><g><rect x="13.751" y="13.84" width="4.502" height="4.349" transform="matrix(0.948,-0.318,0.318,0.948,-4.262,5.92)" fill="rgb(45,51,58)"/><path d=" M 30.659 11.6 C 27.359 0.599 22.6 -1.959 11.6 1.341 C 0.599 4.641 -1.959 9.4 1.341 20.4 C 4.641 31.401 9.4 33.959 20.4 30.659 C 31.401 27.359 33.959 22.6 30.659 11.6 Z  M 25.107 18.737 L 23.035 19.428 L 23.751 21.577 C 24.033 22.447 23.572 23.393 22.703 23.675 C 22.523 23.726 22.319 23.777 22.14 23.751 C 21.475 23.726 20.835 23.291 20.605 22.626 L 19.889 20.477 L 15.616 21.91 L 16.333 24.058 C 16.614 24.928 16.153 25.875 15.284 26.156 C 15.105 26.207 14.9 26.259 14.721 26.233 C 14.056 26.207 13.416 25.772 13.186 25.107 L 12.47 22.958 L 10.397 23.649 C 10.218 23.7 10.014 23.751 9.835 23.726 C 9.17 23.7 8.53 23.265 8.3 22.6 C 8.018 21.73 8.479 20.784 9.349 20.502 L 11.421 19.812 L 10.039 15.693 L 7.967 16.384 C 7.788 16.435 7.583 16.486 7.404 16.46 C 6.739 16.435 6.1 16 5.869 15.335 C 5.588 14.465 6.048 13.519 6.918 13.237 L 8.99 12.546 L 8.274 10.397 C 7.993 9.528 8.453 8.581 9.323 8.3 C 10.193 8.018 11.139 8.479 11.421 9.349 L 12.137 11.498 L 16.409 10.065 L 15.693 7.916 C 15.412 7.046 15.872 6.1 16.742 5.818 C 17.612 5.537 18.558 5.997 18.84 6.867 L 19.556 9.016 L 21.628 8.325 C 22.498 8.044 23.444 8.504 23.726 9.374 C 24.007 10.244 23.547 11.191 22.677 11.472 L 20.605 12.163 L 21.986 16.281 L 24.058 15.591 C 24.928 15.309 25.875 15.77 26.156 16.64 C 26.438 17.509 25.977 18.456 25.107 18.737 Z " fill="rgb(0,0,0)"/></g></g></g></g></g></g></g></svg>