<?xml version="1.0" encoding="UTF-8" standalone="no"?>
<!-- Generator: Gravit.io -->
<svg xmlns="http://www.w3.org/2000/svg" xmlns:xlink="http://www.w3.org/1999/xlink" style="isolation:isolate" viewBox="0 0 32 32" width="32" height="32"><defs><clipPath id="_clipPath_pdYL98Lo0mIQBP7lNi6An8bkWO6oDpha"><rect width="32" height="32"/></clipPath></defs><g clip-path="url(#_clipPath_pdYL98Lo0mIQBP7lNi6An8bkWO6oDpha)"><g><path d=" M 26.901 0 C 29.717 0 32 2.283 32 5.099 L 32 26.901 C 32 29.717 29.717 32 26.901 32 L 5.099 32 C 2.283 32 0 29.717 0 26.901 L 0 5.099 C 0 2.283 2.283 0 5.099 0 L 26.901 0 Z  M 16.118 26.989 C 16.057 26.989 15.998 26.987 15.938 26.984 C 15.9 26.987 15.861 26.989 15.821 26.989 C 14.433 26.989 13.541 26.359 12.679 25.749 C 12.084 25.329 11.522 24.932 10.861 24.821 C 10.538 24.768 10.216 24.741 9.906 24.741 C 9.346 24.741 8.905 24.827 8.582 24.89 C 8.387 24.929 8.218 24.962 8.089 24.962 C 7.955 24.962 7.81 24.933 7.747 24.717 C 7.692 24.529 7.652 24.349 7.614 24.173 C 7.515 23.723 7.445 23.445 7.257 23.416 C 5.054 23.076 4.423 22.612 4.283 22.283 C 4.263 22.236 4.251 22.188 4.249 22.142 C 4.242 22.015 4.331 21.903 4.457 21.883 C 7.842 21.326 9.361 17.865 9.424 17.718 C 9.425 17.714 9.427 17.71 9.429 17.706 C 9.637 17.286 9.677 16.921 9.55 16.623 C 9.318 16.075 8.56 15.835 8.058 15.675 C 7.936 15.636 7.819 15.6 7.727 15.563 C 6.726 15.168 6.643 14.762 6.683 14.555 C 6.75 14.202 7.221 13.956 7.603 13.956 C 7.707 13.956 7.799 13.975 7.876 14.011 C 8.327 14.221 8.732 14.328 9.083 14.328 C 9.567 14.328 9.778 14.125 9.804 14.098 C 9.791 13.869 9.776 13.63 9.761 13.383 C 9.66 11.782 9.534 9.793 10.041 8.657 C 11.559 5.254 14.778 4.99 15.728 4.99 C 15.752 4.99 16.145 4.985 16.145 4.985 L 16.201 4.985 C 17.153 4.985 20.38 5.25 21.898 8.656 C 22.405 9.791 22.279 11.782 22.179 13.382 L 22.174 13.452 C 22.16 13.674 22.147 13.891 22.135 14.098 C 22.16 14.123 22.354 14.31 22.792 14.327 L 22.793 14.327 C 23.127 14.314 23.51 14.207 23.93 14.011 C 24.053 13.953 24.19 13.941 24.283 13.941 C 24.426 13.941 24.57 13.968 24.689 14.018 L 24.697 14.021 C 25.037 14.142 25.26 14.38 25.264 14.629 C 25.269 14.864 25.09 15.216 24.212 15.563 C 24.121 15.599 24.004 15.636 23.881 15.675 C 23.379 15.835 22.621 16.075 22.389 16.623 C 22.262 16.921 22.302 17.286 22.51 17.706 C 22.512 17.71 22.514 17.714 22.516 17.718 C 22.578 17.865 24.095 21.325 27.483 21.883 C 27.608 21.903 27.697 22.015 27.69 22.141 C 27.688 22.189 27.676 22.237 27.656 22.283 C 27.516 22.61 26.886 23.073 24.683 23.414 C 24.503 23.441 24.433 23.676 24.325 24.168 C 24.286 24.347 24.247 24.523 24.192 24.708 C 24.146 24.868 24.046 24.943 23.877 24.943 L 23.85 24.943 C 23.733 24.943 23.567 24.922 23.357 24.881 C 22.984 24.808 22.566 24.741 22.034 24.741 C 21.723 24.741 21.401 24.768 21.078 24.821 C 20.417 24.932 19.856 25.328 19.262 25.748 C 18.398 26.359 17.507 26.989 16.118 26.989 Z " fill-rule="evenodd" fill="rgb(0,0,0)"/></g></g></svg>