<?xml version="1.0" encoding="UTF-8" standalone="no"?>
<!-- Generator: Gravit.io -->
<svg xmlns="http://www.w3.org/2000/svg" xmlns:xlink="http://www.w3.org/1999/xlink" style="isolation:isolate" viewBox="0 0 32 32" width="32" height="32"><defs><clipPath id="_clipPath_G1OKPN3I2g3kEtc6cYC9jAJbA4LnPR9J"><rect width="32" height="32"/></clipPath></defs><g clip-path="url(#_clipPath_G1OKPN3I2g3kEtc6cYC9jAJbA4LnPR9J)"><path d=" M 0.094 0 L 32.094 0 L 32.094 32 L 0.094 32 L 0.094 0 Z  M 21.113 21.344 C 20.741 21.521 20.03 21.675 19.5 21.688 C 17.899 21.731 17.588 20.566 17.576 19.721 L 17.576 13.508 L 21.591 13.508 L 21.591 10.486 L 17.589 10.486 L 17.589 5.402 C 17.589 5.402 14.708 5.402 14.661 5.402 C 14.613 5.402 14.529 5.444 14.517 5.551 C 14.345 7.107 13.616 9.838 10.582 10.93 L 10.582 13.508 L 12.606 13.508 L 12.606 20.029 C 12.606 22.262 14.256 25.434 18.612 25.359 C 20.082 25.334 21.714 24.72 22.075 24.19 L 21.113 21.344 Z " fill-rule="evenodd" fill="rgb(0,0,0)"/></g></svg>