<?xml version="1.0" encoding="UTF-8" standalone="no"?>
<!-- Generator: Gravit.io -->
<svg xmlns="http://www.w3.org/2000/svg" xmlns:xlink="http://www.w3.org/1999/xlink" style="isolation:isolate" viewBox="0 0 32 32" width="32" height="32"><defs><clipPath id="_clipPath_0e7kxHmbxT7y8tuVCuApj6MvS6CoE1hp"><rect width="32" height="32"/></clipPath></defs><g clip-path="url(#_clipPath_0e7kxHmbxT7y8tuVCuApj6MvS6CoE1hp)"><path d=" M 13.062 15.674 L 15.674 15.674 L 15.674 7.836 L 13.062 7.836 L 13.062 15.674 Z  M 20.245 15.674 L 22.857 15.674 L 22.857 7.836 L 20.245 7.836 L 20.245 15.674 Z " fill-rule="evenodd" fill="rgb(0,0,0)"/><path d=" M 27.43 16.979 L 22.857 21.551 L 15.674 21.551 L 11.756 25.469 L 11.756 21.551 L 5.879 21.551 L 5.879 2.612 L 27.43 2.612 L 27.43 16.979 Z  M 3.265 0 L 1.959 5.225 L 1.959 28.734 L 7.838 28.734 L 7.838 32 L 11.102 32 L 14.368 28.734 L 19.592 28.734 L 30.041 18.287 L 30.041 0 L 3.265 0 Z " fill-rule="evenodd" fill="rgb(0,0,0)"/></g></svg>