<?xml version="1.0" encoding="UTF-8" standalone="no"?>
<!-- Generator: Gravit.io -->
<svg xmlns="http://www.w3.org/2000/svg" xmlns:xlink="http://www.w3.org/1999/xlink" style="isolation:isolate" viewBox="0 0 32 32" width="32" height="32"><defs><clipPath id="_clipPath_pJ0tpXy5CxGlNbdxrgEFp0IDSoij4Owz"><rect width="32" height="32"/></clipPath></defs><g clip-path="url(#_clipPath_pJ0tpXy5CxGlNbdxrgEFp0IDSoij4Owz)"><path d=" M 16.067 31.726 M 16.067 31.726 C 16.067 31.726 16.067 31.726 16.067 31.726 C 16.067 31.726 16.067 31.726 16.067 31.726 Z  M 5.164 23.369 L 4.848 22.871 C 3.523 20.772 2.823 18.347 2.824 15.857 C 2.827 8.59 8.767 2.678 16.072 2.678 C 19.61 2.68 22.934 4.053 25.435 6.544 C 27.935 9.034 29.311 12.346 29.31 15.868 C 29.307 23.135 23.366 29.047 16.067 29.047 L 16.062 29.047 C 13.685 29.046 11.354 28.411 9.322 27.21 L 8.838 26.925 L 3.826 28.233 L 5.164 23.369 Z  M 0.134 15.856 C 0.133 18.651 0.866 21.379 2.261 23.783 L 0 32 L 8.446 29.795 C 10.774 31.059 13.394 31.724 16.06 31.726 L 16.067 31.726 C 24.848 31.726 31.997 24.611 32 15.869 C 32.002 11.632 30.346 7.648 27.338 4.65 C 24.329 1.653 20.329 0.002 16.067 0 C 7.284 0 0.137 7.113 0.134 15.856 Z " fill-rule="evenodd" fill="rgb(0,0,0)"/><path d=" M 12.085 9.227 C 11.787 8.567 11.473 8.554 11.189 8.543 C 10.957 8.533 10.691 8.533 10.426 8.533 C 10.161 8.533 9.729 8.632 9.365 9.029 C 9 9.426 7.971 10.385 7.971 12.334 C 7.971 14.285 9.398 16.169 9.597 16.433 C 9.796 16.698 12.351 20.827 16.397 22.416 C 19.76 23.736 20.445 23.473 21.175 23.407 C 21.905 23.341 23.53 22.449 23.862 21.523 C 24.194 20.598 24.194 19.805 24.094 19.639 C 23.995 19.474 23.729 19.375 23.331 19.176 C 22.933 18.978 20.976 18.019 20.611 17.887 C 20.246 17.755 19.98 17.689 19.715 18.086 C 19.449 18.482 18.687 19.375 18.455 19.639 C 18.222 19.904 17.99 19.937 17.592 19.739 C 17.194 19.54 15.911 19.122 14.39 17.772 C 13.207 16.721 12.408 15.424 12.176 15.027 C 11.943 14.631 12.151 14.416 12.351 14.218 C 12.529 14.041 12.749 13.756 12.948 13.524 C 13.146 13.293 13.213 13.128 13.346 12.863 C 13.478 12.599 13.412 12.367 13.312 12.169 C 13.213 11.971 12.439 10.011 12.085 9.227 Z " fill-rule="evenodd" fill="rgb(0,0,0)"/></g></svg>